<svg version="1.2" xmlns="http://www.w3.org/2000/svg" viewBox="0 0 1536 1502" width="1536" height="1502">
	<style>
		.s0 { fill: #383838 } 
	</style>
	<path id="Shape" class="s0" d="m49.47 1010.83l-49.29-192.08c-13.91-54.21 24.35-107.84 80.12-112.38l536.57-43.53-360.38-403.85c-37.08-41.54-28.03-106.44 19.01-136.27l167.5-106.23c47.26-29.97 110.12-10.16 131.64 41.46l207.25 496.63 272.84-467.4c28.07-48.11 92.58-59.55 135.52-24.02l152.84 126.41c43.13 35.67 43.7 101.56 1.23 138.01l-408.46 350.5 529 114.95c54.45 11.82 85.27 69.62 64.76 121.4l-73.05 184.39c-20.62 52.01-83.13 72.94-130.89 43.82l-459.7-280.04 54.08 538.48c5.58 55.41-39.9 102.6-95.51 99.09l-198-12.49c-55.85-3.51-95.08-56.49-82.14-110.89l124.38-523.59-495.58 217.84c-50.94 22.37-109.9-6.28-123.74-60.21z"/>
</svg>